<?xml version="1.0" encoding="UTF-8" standalone="no"?>
<!-- Created with Inkscape (http://www.inkscape.org/) -->

<svg
   xmlns:dc="http://purl.org/dc/elements/1.1/"
   xmlns:cc="http://creativecommons.org/ns#"
   xmlns:rdf="http://www.w3.org/1999/02/22-rdf-syntax-ns#"
   xmlns:svg="http://www.w3.org/2000/svg"
   xmlns="http://www.w3.org/2000/svg"
   xmlns:sodipodi="http://sodipodi.sourceforge.net/DTD/sodipodi-0.dtd"
   xmlns:inkscape="http://www.inkscape.org/namespaces/inkscape"
   width="128.5"
   height="35.980541"
   viewBox="0 0 33.998957 9.5198509"
   version="1.1"
   id="svg8"
   inkscape:version="0.92.3 (2405546, 2018-03-11)"
   sodipodi:docname="header-logo.svg">
  <defs
     id="defs2" />
  <sodipodi:namedview
     id="base"
     pagecolor="#ffffff"
     bordercolor="#666666"
     borderopacity="1.0"
     inkscape:pageopacity="0.0"
     inkscape:pageshadow="2"
     inkscape:zoom="4"
     inkscape:cx="81.900423"
     inkscape:cy="14.273114"
     inkscape:document-units="mm"
     inkscape:current-layer="text932"
     inkscape:document-rotation="0"
     showgrid="false"
     borderlayer="true"
     inkscape:showpageshadow="false"
     units="px"
     inkscape:pagecheckerboard="false"
     showguides="true"
     inkscape:window-width="1366"
     inkscape:window-height="715"
     inkscape:window-x="0"
     inkscape:window-y="0"
     inkscape:window-maximized="1"
     fit-margin-top="0"
     fit-margin-left="0"
     fit-margin-right="0"
     fit-margin-bottom="0">
    <inkscape:grid
       type="xygrid"
       id="grid10"
       originx="-216.08895"
       originy="-109.20042" />
  </sodipodi:namedview>
  <metadata
     id="metadata5">
    <rdf:RDF>
      <cc:Work
         rdf:about="">
        <dc:format>image/svg+xml</dc:format>
        <dc:type
           rdf:resource="http://purl.org/dc/dcmitype/StillImage" />
        <dc:title></dc:title>
      </cc:Work>
    </rdf:RDF>
  </metadata>
  <g
     inkscape:label="Layer 1"
     inkscape:groupmode="layer"
     id="layer1"
     transform="translate(-216.08893,-178.27977)">
    <g
       style="fill:#58595b;fill-opacity:1;stroke:none;stroke-opacity:1"
       transform="matrix(0.07500175,0,0,-0.07500175,217.54414,184.8892)"
       id="g3579"
       inkscape:export-ydpi="96"
       inkscape:export-xdpi="96">
      <g
         aria-label="identihub"
         transform="scale(1,-1)"
         style="font-style:normal;font-variant:normal;font-weight:800;font-stretch:normal;font-size:71.82733154px;line-height:1.25;font-family:Overpass;-inkscape-font-specification:'Overpass Ultra-Bold';text-align:center;text-anchor:middle;opacity:1;fill:#58595b;fill-opacity:1;stroke:none;stroke-width:2.33401752;stroke-miterlimit:4;stroke-dasharray:none;stroke-opacity:1"
         id="text932">
        <g
           transform="matrix(2.4753992,0,0,2.4753992,-228.21577,-468.59133)"
           id="layer1-5"
           inkscape:label="Layer 1">
          <g
             transform="matrix(1.304051,0,0,1.304051,-28.028122,-46.73249)"
             id="g1562">
            <path
               d="m 126.31584,163.79212 h 3.06564 v 13.39074 h -3.06564 z m -0.28821,-3.66889 c 0,-0.99589 0.81244,-1.80799 1.83409,-1.80799 1.02199,0 1.80833,0.8121 1.80833,1.80799 0,1.022 -0.78634,1.83444 -1.80833,1.83444 -1.02165,0 -1.83409,-0.81244 -1.83409,-1.83444"
               style="fill:#58595b;fill-opacity:1;fill-rule:nonzero;stroke:none;stroke-width:0.35277775"
               id="path20"
               inkscape:connector-curvature="0" />
            <g
               id="g22"
               transform="matrix(0.35277777,0,0,-0.35277777,139.94252,173.27821)">
              <path
                 d="m 0,0 v 15.896 c -1.114,1.634 -3.565,3.64 -7.206,3.64 -5.348,0 -8.394,-4.086 -8.394,-11.588 0,-6.908 3.046,-11.588 8.394,-11.588 3.268,0 5.645,1.263 7.206,3.64 m -24.29,7.948 c 0,12.406 6.611,19.833 15.747,19.833 4.012,0 6.76,-1.485 8.543,-3.565 v 14.41 l 8.69,3.937 V -11.068 H 0 v 2.748 c -1.783,-2.302 -4.531,-3.639 -8.543,-3.639 -9.582,0 -15.747,7.279 -15.747,19.907"
                 style="fill:#58595b;fill-opacity:1;fill-rule:nonzero;stroke:none"
                 id="path24"
                 inkscape:connector-curvature="0" />
            </g>
            <g
               id="g26"
               transform="matrix(0.35277777,0,0,-0.35277777,153.96233,169.11137)">
              <path
                 d="m 0,0 c -0.371,5.793 -4.011,8.319 -7.948,8.319 -4.68,0 -8.394,-2.377 -8.84,-8.319 z m -25.479,-3.863 c 0,12.405 6.908,19.833 17.531,19.833 9.136,0 16.565,-5.646 16.565,-17.827 0,-1.561 -0.075,-3.64 -0.297,-5.349 h -25.182 c 0.297,-5.571 4.383,-8.914 8.914,-8.914 3.343,0 6.016,1.263 8.022,3.937 l 5.497,-5.645 c -2.971,-3.566 -7.428,-5.943 -13.519,-5.943 -10.771,0 -17.531,7.428 -17.531,19.908"
                 style="fill:#58595b;fill-opacity:1;fill-rule:nonzero;stroke:none"
                 id="path28"
                 inkscape:connector-curvature="0" />
            </g>
            <g
               id="g30"
               transform="matrix(0.35277777,0,0,-0.35277777,167.11727,169.50479)">
              <path
                 d="m 0,0 c 0,6.24 -2.674,8.84 -7.057,8.84 -4.679,0 -7.724,-2.451 -7.724,-8.692 v -21.913 h -8.692 v 37.958 h 8.692 v -3.565 c 2.451,2.972 5.718,4.457 10.027,4.457 7.206,0 13.445,-3.937 13.445,-15.524 V -21.765 H 0 Z"
                 style="fill:#58595b;fill-opacity:1;fill-rule:nonzero;stroke:none"
                 id="path32"
                 inkscape:connector-curvature="0" />
            </g>
            <g
               id="g34"
               transform="matrix(0.35277777,0,0,-0.35277777,173.48551,174.06437)">
              <path
                 d="m 0,0 v 21.542 h -5.646 v 7.576 H 0 v 11.515 l 8.69,4.159 V 29.118 h 8.766 V 21.542 H 8.69 V 1.708 c 0,-2.153 0.892,-3.64 3.195,-3.64 1.931,0 3.937,0.595 5.942,1.709 L 16.788,-8.022 C 14.633,-9.137 11.959,-9.73 8.84,-9.73 2.6,-9.73 0,-6.017 0,0"
                 style="fill:#58595b;fill-opacity:1;fill-rule:nonzero;stroke:none"
                 id="path36"
                 inkscape:connector-curvature="0" />
            </g>
            <path
               d="m 181.5044,163.79212 h 3.06564 v 13.39074 h -3.06564 z m -0.28858,-3.66889 c 0,-0.99589 0.81245,-1.80799 1.83445,-1.80799 1.022,0 1.80834,0.8121 1.80834,1.80799 0,1.022 -0.78634,1.83444 -1.80834,1.83444 -1.022,0 -1.83445,-0.81244 -1.83445,-1.83444"
               style="fill:#58595b;fill-opacity:1;fill-rule:nonzero;stroke:none;stroke-width:0.35277775"
               id="path38"
               inkscape:connector-curvature="0" />
            <g
               id="g40"
               transform="matrix(0.35277777,0,0,-0.35277777,187.217,159.67802)">
              <path
                 d="m 0,0 8.69,4.012 v -19.24 c 2.453,2.972 5.72,4.457 10.029,4.457 7.205,0 13.445,-3.936 13.445,-15.524 V -49.62 h -8.691 v 21.913 c 0,6.166 -2.748,8.691 -7.057,8.691 -4.456,0 -7.726,-2.302 -7.726,-8.542 V -49.62 H 0 Z"
                 style="fill:#58595b;fill-opacity:1;fill-rule:nonzero;stroke:none"
                 id="path42"
                 inkscape:connector-curvature="0" />
            </g>
            <g
               id="g44"
               transform="matrix(0.35277777,0,0,-0.35277777,209.20324,175.89857)">
              <path
                 d="m 0,0 c -2.377,-3.046 -5.72,-4.531 -9.954,-4.531 -7.205,0 -13.52,4.01 -13.52,15.598 v 23.25 h 8.692 V 12.628 c 0,-6.24 2.674,-8.84 7.131,-8.84 C -3.046,3.788 0,6.165 0,12.479 V 34.317 H 8.69 V -3.641 H 0 Z"
                 style="fill:#58595b;fill-opacity:1;fill-rule:nonzero;stroke:none"
                 id="path46"
                 inkscape:connector-curvature="0" />
            </g>
            <g
               id="g48"
               transform="matrix(0.35277777,0,0,-0.35277777,223.45906,170.47426)">
              <path
                 d="m 0,0 c 0,7.502 -2.972,11.588 -8.245,11.588 -3.641,0 -6.24,-2.006 -7.355,-3.714 V -7.948 c 1.56,-2.377 4.011,-3.64 7.355,-3.64 C -2.823,-11.588 0,-7.131 0,0 m -15.6,-16.119 v -2.898 h -8.69 v 49.695 l 8.69,3.937 V 16.119 c 1.858,2.154 4.606,3.714 8.543,3.714 9.21,0 15.747,-7.428 15.747,-19.833 0,-12.851 -6.09,-19.907 -15.896,-19.907 -4.011,0 -6.536,1.485 -8.394,3.788"
                 style="fill:#58595b;fill-opacity:1;fill-rule:nonzero;stroke:none"
                 id="path50"
                 inkscape:connector-curvature="0" />
            </g>
            <g
               id="g52"
               transform="matrix(0.35277777,0,0,-0.35277777,113.53259,181.09894)">
              <path
                 d="M 0,0 H 17.147 V 23.994 C 9.167,31.046 -1.408,35.938 -13.247,37.531 Z"
                 style="fill:#58595b;fill-opacity:1;fill-rule:nonzero;stroke:none"
                 id="path54"
                 inkscape:connector-curvature="0" />
            </g>
            <g
               id="g56"
               transform="matrix(0.35277777,0,0,-0.35277777,92.182302,181.09894)">
              <path
                 d="M 0,0 H 17.148 L 30.396,37.531 C 18.555,35.938 7.981,31.046 0,23.994 Z"
                 style="fill:#58595b;fill-opacity:1;fill-rule:nonzero;stroke:none"
                 id="path58"
                 inkscape:connector-curvature="0" />
            </g>
            <g
               id="g60"
               transform="matrix(0.35277777,0,0,-0.35277777,105.8819,165.30695)">
              <path
                 d="M 0,0 C 14.353,0 27.946,-4.324 38.835,-12.235 V 32.903 H -38.833 V -12.236 C -27.945,-4.324 -14.352,0 0,0"
                 style="fill:#58595b;fill-opacity:1;fill-rule:nonzero;stroke:none"
                 id="path62"
                 inkscape:connector-curvature="0" />
            </g>
          </g>
        </g>
      </g>
    </g>
  </g>
</svg>
